<mxfile host="app.diagrams.net" modified="2024-09-27T17:18:33.641Z" agent="Mozilla/5.0 (Windows NT 10.0; Win64; x64) AppleWebKit/537.36 (KHTML, like Gecko) Chrome/129.0.0.0 Safari/537.36" etag="OZ3qeVHESr3qpXwDZfDO" version="24.2.5" type="device">
  <diagram id="R2lEEEUBdFMjLlhIrx00" name="Page-1">
    <mxGraphModel dx="1843" dy="817" grid="1" gridSize="10" guides="1" tooltips="1" connect="1" arrows="1" fold="1" page="1" pageScale="1" pageWidth="850" pageHeight="1100" math="0" shadow="0" extFonts="Permanent Marker^https://fonts.googleapis.com/css?family=Permanent+Marker">
      <root>
        <mxCell id="0" />
        <mxCell id="1" parent="0" />
        <mxCell id="dWP1zJCHaRL9WXJ6XAb1-1" value="app.component.ts" style="ellipse;whiteSpace=wrap;html=1;" vertex="1" parent="1">
          <mxGeometry x="345" y="130" width="160" height="40" as="geometry" />
        </mxCell>
        <mxCell id="dWP1zJCHaRL9WXJ6XAb1-2" value="main-site.component.ts" style="ellipse;whiteSpace=wrap;html=1;" vertex="1" parent="1">
          <mxGeometry x="345" y="370" width="160" height="40" as="geometry" />
        </mxCell>
        <mxCell id="dWP1zJCHaRL9WXJ6XAb1-3" value="reports.component.ts" style="ellipse;whiteSpace=wrap;html=1;" vertex="1" parent="1">
          <mxGeometry x="85" y="390" width="160" height="40" as="geometry" />
        </mxCell>
        <mxCell id="dWP1zJCHaRL9WXJ6XAb1-4" value="transactions.component.ts" style="ellipse;whiteSpace=wrap;html=1;" vertex="1" parent="1">
          <mxGeometry x="135" y="540" width="160" height="40" as="geometry" />
        </mxCell>
        <mxCell id="dWP1zJCHaRL9WXJ6XAb1-5" value="dashboard.component.ts" style="ellipse;whiteSpace=wrap;html=1;" vertex="1" parent="1">
          <mxGeometry x="345" y="530" width="160" height="40" as="geometry" />
        </mxCell>
        <mxCell id="dWP1zJCHaRL9WXJ6XAb1-6" value="budget.component.ts" style="ellipse;whiteSpace=wrap;html=1;" vertex="1" parent="1">
          <mxGeometry x="550" y="540" width="160" height="40" as="geometry" />
        </mxCell>
        <mxCell id="dWP1zJCHaRL9WXJ6XAb1-7" value="settings.component.ts" style="ellipse;whiteSpace=wrap;html=1;" vertex="1" parent="1">
          <mxGeometry x="605" y="390" width="160" height="40" as="geometry" />
        </mxCell>
        <mxCell id="dWP1zJCHaRL9WXJ6XAb1-8" value="transaction-dialog.component.ts" style="ellipse;whiteSpace=wrap;html=1;" vertex="1" parent="1">
          <mxGeometry x="110" y="670" width="160" height="40" as="geometry" />
        </mxCell>
        <mxCell id="dWP1zJCHaRL9WXJ6XAb1-9" value="year-dialog.component.ts" style="ellipse;whiteSpace=wrap;html=1;" vertex="1" parent="1">
          <mxGeometry x="345" y="670" width="160" height="40" as="geometry" />
        </mxCell>
        <mxCell id="dWP1zJCHaRL9WXJ6XAb1-10" value="budget-dialog.component.ts" style="ellipse;whiteSpace=wrap;html=1;" vertex="1" parent="1">
          <mxGeometry x="590" y="670" width="160" height="40" as="geometry" />
        </mxCell>
        <mxCell id="dWP1zJCHaRL9WXJ6XAb1-13" value="" style="endArrow=classic;html=1;rounded=0;fontSize=12;startSize=8;endSize=8;curved=1;exitX=0.5;exitY=1;exitDx=0;exitDy=0;entryX=0.5;entryY=0;entryDx=0;entryDy=0;" edge="1" parent="1" source="dWP1zJCHaRL9WXJ6XAb1-2" target="dWP1zJCHaRL9WXJ6XAb1-5">
          <mxGeometry width="50" height="50" relative="1" as="geometry">
            <mxPoint x="435" y="300" as="sourcePoint" />
            <mxPoint x="435" y="380" as="targetPoint" />
          </mxGeometry>
        </mxCell>
        <mxCell id="dWP1zJCHaRL9WXJ6XAb1-14" value="" style="endArrow=classic;html=1;rounded=0;fontSize=12;startSize=8;endSize=8;curved=1;exitX=0;exitY=1;exitDx=0;exitDy=0;entryX=0.5;entryY=0;entryDx=0;entryDy=0;" edge="1" parent="1" source="dWP1zJCHaRL9WXJ6XAb1-2" target="dWP1zJCHaRL9WXJ6XAb1-4">
          <mxGeometry width="50" height="50" relative="1" as="geometry">
            <mxPoint x="445" y="310" as="sourcePoint" />
            <mxPoint x="445" y="390" as="targetPoint" />
          </mxGeometry>
        </mxCell>
        <mxCell id="dWP1zJCHaRL9WXJ6XAb1-15" value="" style="endArrow=classic;html=1;rounded=0;fontSize=12;startSize=8;endSize=8;curved=1;exitX=0;exitY=0.5;exitDx=0;exitDy=0;entryX=0.5;entryY=0;entryDx=0;entryDy=0;" edge="1" parent="1" source="dWP1zJCHaRL9WXJ6XAb1-2" target="dWP1zJCHaRL9WXJ6XAb1-3">
          <mxGeometry width="50" height="50" relative="1" as="geometry">
            <mxPoint x="455" y="320" as="sourcePoint" />
            <mxPoint x="455" y="400" as="targetPoint" />
          </mxGeometry>
        </mxCell>
        <mxCell id="dWP1zJCHaRL9WXJ6XAb1-16" value="" style="endArrow=classic;html=1;rounded=0;fontSize=12;startSize=8;endSize=8;curved=1;exitX=1;exitY=0.5;exitDx=0;exitDy=0;entryX=0.5;entryY=0;entryDx=0;entryDy=0;" edge="1" parent="1" source="dWP1zJCHaRL9WXJ6XAb1-2" target="dWP1zJCHaRL9WXJ6XAb1-7">
          <mxGeometry width="50" height="50" relative="1" as="geometry">
            <mxPoint x="465" y="330" as="sourcePoint" />
            <mxPoint x="465" y="410" as="targetPoint" />
          </mxGeometry>
        </mxCell>
        <mxCell id="dWP1zJCHaRL9WXJ6XAb1-17" value="" style="endArrow=classic;html=1;rounded=0;fontSize=12;startSize=8;endSize=8;curved=1;exitX=1;exitY=1;exitDx=0;exitDy=0;entryX=0.5;entryY=0;entryDx=0;entryDy=0;" edge="1" parent="1" source="dWP1zJCHaRL9WXJ6XAb1-2" target="dWP1zJCHaRL9WXJ6XAb1-6">
          <mxGeometry width="50" height="50" relative="1" as="geometry">
            <mxPoint x="475" y="340" as="sourcePoint" />
            <mxPoint x="475" y="420" as="targetPoint" />
          </mxGeometry>
        </mxCell>
        <mxCell id="dWP1zJCHaRL9WXJ6XAb1-18" value="" style="endArrow=classic;html=1;rounded=0;fontSize=12;startSize=8;endSize=8;curved=1;exitX=0.5;exitY=1;exitDx=0;exitDy=0;entryX=0.5;entryY=0;entryDx=0;entryDy=0;" edge="1" parent="1" source="dWP1zJCHaRL9WXJ6XAb1-5" target="dWP1zJCHaRL9WXJ6XAb1-9">
          <mxGeometry width="50" height="50" relative="1" as="geometry">
            <mxPoint x="485" y="350" as="sourcePoint" />
            <mxPoint x="485" y="430" as="targetPoint" />
          </mxGeometry>
        </mxCell>
        <mxCell id="dWP1zJCHaRL9WXJ6XAb1-19" value="" style="endArrow=classic;html=1;rounded=0;fontSize=12;startSize=8;endSize=8;curved=1;exitX=0.5;exitY=1;exitDx=0;exitDy=0;entryX=0.5;entryY=0;entryDx=0;entryDy=0;" edge="1" parent="1" source="dWP1zJCHaRL9WXJ6XAb1-6" target="dWP1zJCHaRL9WXJ6XAb1-10">
          <mxGeometry width="50" height="50" relative="1" as="geometry">
            <mxPoint x="495" y="360" as="sourcePoint" />
            <mxPoint x="495" y="440" as="targetPoint" />
          </mxGeometry>
        </mxCell>
        <mxCell id="dWP1zJCHaRL9WXJ6XAb1-20" value="" style="endArrow=classic;html=1;rounded=0;fontSize=12;startSize=8;endSize=8;curved=1;exitX=0.5;exitY=1;exitDx=0;exitDy=0;entryX=0.5;entryY=0;entryDx=0;entryDy=0;" edge="1" parent="1" source="dWP1zJCHaRL9WXJ6XAb1-4" target="dWP1zJCHaRL9WXJ6XAb1-8">
          <mxGeometry width="50" height="50" relative="1" as="geometry">
            <mxPoint x="505" y="370" as="sourcePoint" />
            <mxPoint x="505" y="450" as="targetPoint" />
          </mxGeometry>
        </mxCell>
        <mxCell id="dWP1zJCHaRL9WXJ6XAb1-21" value="sign-up.component.ts" style="ellipse;whiteSpace=wrap;html=1;" vertex="1" parent="1">
          <mxGeometry x="445" y="250" width="160" height="40" as="geometry" />
        </mxCell>
        <mxCell id="dWP1zJCHaRL9WXJ6XAb1-22" value="" style="endArrow=classic;html=1;rounded=0;fontSize=12;startSize=8;endSize=8;curved=1;exitX=0.5;exitY=1;exitDx=0;exitDy=0;entryX=1;entryY=0;entryDx=0;entryDy=0;" edge="1" parent="1" source="dWP1zJCHaRL9WXJ6XAb1-21" target="dWP1zJCHaRL9WXJ6XAb1-2">
          <mxGeometry width="50" height="50" relative="1" as="geometry">
            <mxPoint x="435" y="420" as="sourcePoint" />
            <mxPoint x="435" y="500" as="targetPoint" />
          </mxGeometry>
        </mxCell>
        <mxCell id="dWP1zJCHaRL9WXJ6XAb1-23" value="" style="endArrow=classic;html=1;rounded=0;fontSize=12;startSize=8;endSize=8;curved=1;exitX=1;exitY=1;exitDx=0;exitDy=0;entryX=0.5;entryY=0;entryDx=0;entryDy=0;" edge="1" parent="1" source="dWP1zJCHaRL9WXJ6XAb1-1" target="dWP1zJCHaRL9WXJ6XAb1-21">
          <mxGeometry width="50" height="50" relative="1" as="geometry">
            <mxPoint x="445" y="430" as="sourcePoint" />
            <mxPoint x="475" y="210" as="targetPoint" />
          </mxGeometry>
        </mxCell>
        <mxCell id="dWP1zJCHaRL9WXJ6XAb1-24" value="sign-in.component.ts" style="ellipse;whiteSpace=wrap;html=1;" vertex="1" parent="1">
          <mxGeometry x="245" y="250" width="160" height="40" as="geometry" />
        </mxCell>
        <mxCell id="dWP1zJCHaRL9WXJ6XAb1-25" value="" style="endArrow=classic;html=1;rounded=0;fontSize=12;startSize=8;endSize=8;curved=1;exitX=0;exitY=1;exitDx=0;exitDy=0;entryX=0.5;entryY=0;entryDx=0;entryDy=0;" edge="1" parent="1" source="dWP1zJCHaRL9WXJ6XAb1-1" target="dWP1zJCHaRL9WXJ6XAb1-24">
          <mxGeometry width="50" height="50" relative="1" as="geometry">
            <mxPoint x="435" y="180" as="sourcePoint" />
            <mxPoint x="535" y="260" as="targetPoint" />
          </mxGeometry>
        </mxCell>
        <mxCell id="dWP1zJCHaRL9WXJ6XAb1-26" value="" style="endArrow=classic;html=1;rounded=0;fontSize=12;startSize=8;endSize=8;curved=1;exitX=0.5;exitY=1;exitDx=0;exitDy=0;entryX=0;entryY=0;entryDx=0;entryDy=0;" edge="1" parent="1" source="dWP1zJCHaRL9WXJ6XAb1-24" target="dWP1zJCHaRL9WXJ6XAb1-2">
          <mxGeometry width="50" height="50" relative="1" as="geometry">
            <mxPoint x="535" y="300" as="sourcePoint" />
            <mxPoint x="492" y="386" as="targetPoint" />
          </mxGeometry>
        </mxCell>
        <mxCell id="dWP1zJCHaRL9WXJ6XAb1-27" value="enthÃ¤lt" style="text;html=1;align=center;verticalAlign=middle;whiteSpace=wrap;rounded=0;fontSize=16;" vertex="1" parent="1">
          <mxGeometry x="505" y="180" width="60" height="30" as="geometry" />
        </mxCell>
        <mxCell id="dWP1zJCHaRL9WXJ6XAb1-28" value="enthÃ¤lt" style="text;html=1;align=center;verticalAlign=middle;whiteSpace=wrap;rounded=0;fontSize=16;" vertex="1" parent="1">
          <mxGeometry x="285" y="180" width="60" height="30" as="geometry" />
        </mxCell>
        <mxCell id="dWP1zJCHaRL9WXJ6XAb1-29" value="zeigt" style="text;html=1;align=center;verticalAlign=middle;whiteSpace=wrap;rounded=0;fontSize=16;" vertex="1" parent="1">
          <mxGeometry x="505" y="320" width="60" height="30" as="geometry" />
        </mxCell>
        <mxCell id="dWP1zJCHaRL9WXJ6XAb1-30" value="zeigt" style="text;html=1;align=center;verticalAlign=middle;whiteSpace=wrap;rounded=0;fontSize=16;" vertex="1" parent="1">
          <mxGeometry x="280" y="320" width="60" height="30" as="geometry" />
        </mxCell>
        <mxCell id="dWP1zJCHaRL9WXJ6XAb1-31" value="zeigt Berichte" style="text;html=1;align=center;verticalAlign=middle;whiteSpace=wrap;rounded=0;fontSize=16;" vertex="1" parent="1">
          <mxGeometry x="210" y="360" width="110" height="30" as="geometry" />
        </mxCell>
        <mxCell id="dWP1zJCHaRL9WXJ6XAb1-32" value="zeigt Einstellungen" style="text;html=1;align=center;verticalAlign=middle;whiteSpace=wrap;rounded=0;fontSize=16;" vertex="1" parent="1">
          <mxGeometry x="512.5" y="360" width="145" height="30" as="geometry" />
        </mxCell>
        <mxCell id="dWP1zJCHaRL9WXJ6XAb1-33" value="zeigt Transaktionen" style="text;html=1;align=center;verticalAlign=middle;whiteSpace=wrap;rounded=0;fontSize=16;rotation=0;" vertex="1" parent="1">
          <mxGeometry x="125" y="460" width="155" height="30" as="geometry" />
        </mxCell>
        <mxCell id="dWP1zJCHaRL9WXJ6XAb1-34" value="zeigt Dashboard" style="text;html=1;align=center;verticalAlign=middle;whiteSpace=wrap;rounded=0;fontSize=16;rotation=0;" vertex="1" parent="1">
          <mxGeometry x="295" y="490" width="130" height="30" as="geometry" />
        </mxCell>
        <mxCell id="dWP1zJCHaRL9WXJ6XAb1-35" value="zeigt Budgets" style="text;html=1;align=center;verticalAlign=middle;whiteSpace=wrap;rounded=0;fontSize=16;rotation=0;" vertex="1" parent="1">
          <mxGeometry x="580" y="470" width="110" height="30" as="geometry" />
        </mxCell>
        <mxCell id="dWP1zJCHaRL9WXJ6XAb1-36" value="Ã¶ffnet Budget-Dialog" style="text;html=1;align=center;verticalAlign=middle;whiteSpace=wrap;rounded=0;fontSize=16;rotation=0;" vertex="1" parent="1">
          <mxGeometry x="640" y="610" width="130" height="30" as="geometry" />
        </mxCell>
        <mxCell id="dWP1zJCHaRL9WXJ6XAb1-37" value="Ã¶ffnet Transaktions-Dialog" style="text;html=1;align=center;verticalAlign=middle;whiteSpace=wrap;rounded=0;fontSize=16;rotation=0;" vertex="1" parent="1">
          <mxGeometry x="50" y="610" width="150" height="30" as="geometry" />
        </mxCell>
        <mxCell id="dWP1zJCHaRL9WXJ6XAb1-38" value="Ã¶ffnet Jahr-Dialog" style="text;html=1;align=center;verticalAlign=middle;whiteSpace=wrap;rounded=0;fontSize=16;rotation=0;" vertex="1" parent="1">
          <mxGeometry x="315" y="610" width="110" height="30" as="geometry" />
        </mxCell>
      </root>
    </mxGraphModel>
  </diagram>
</mxfile>
